<svg xmlns="http://www.w3.org/2000/svg" width="200" height="24" shape-rendering="geometricPrecision" viewBox="0 0 1000 120"><g transform="translate(10,10)"><line x1="0" x2="0" y1="0" y2="100" stroke="#4584b6" stroke-linecap="round" stroke-width="15"/><line x1="0" x2="70" y1="0" y2="0" stroke="#4584b6" stroke-linecap="round" stroke-width="15"/><line x1="70" x2="70" y1="0" y2="50" stroke="#4584b6" stroke-linecap="round" stroke-width="15"/><line x1="0" x2="70" y1="50" y2="50" stroke="#4584b6" stroke-linecap="round" stroke-width="15"/></g><g transform="translate(110,10)"><line x1="35" x2="35" y1="50" y2="100" stroke="#ffde57" stroke-linecap="round" stroke-width="15"/><line x1="0" x2="0" y1="50" y2="0" stroke="#ffde57" stroke-linecap="round" stroke-width="15"/><line x1="70" x2="70" y1="0" y2="50" stroke="#ffde57" stroke-linecap="round" stroke-width="15"/><line x1="0" x2="70" y1="50" y2="50" stroke="#ffde57" stroke-linecap="round" stroke-width="15"/></g><g transform="translate(210,10)"><line x1="0" x2="0" y1="0" y2="100" stroke="#4584b6" stroke-linecap="round" stroke-width="15"/><line x1="0" x2="70" y1="0" y2="0" stroke="#4584b6" stroke-linecap="round" stroke-width="15"/><line x1="70" x2="70" y1="0" y2="50" stroke="#4584b6" stroke-linecap="round" stroke-width="15"/><line x1="0" x2="70" y1="50" y2="50" stroke="#4584b6" stroke-linecap="round" stroke-width="15"/></g><g transform="translate(310,10)"><line x1="0" x2="0" y1="0" y2="100" stroke="#4584b6" stroke-linecap="round" stroke-width="15"/><line x1="0" x2="70" y1="0" y2="0" stroke="#4584b6" stroke-linecap="round" stroke-width="15"/><line x1="70" x2="70" y1="0" y2="50" stroke="#4584b6" stroke-linecap="round" stroke-width="15"/><line x1="0" x2="70" y1="50" y2="50" stroke="#4584b6" stroke-linecap="round" stroke-width="15"/><line x1="40" x2="40" y1="50" y2="100" stroke="#4584b6" stroke-linecap="round" stroke-width="15"/></g><g transform="translate(410,10)"><line x1="0" x2="0" y1="0" y2="100" stroke="#4584b6" stroke-linecap="round" stroke-width="15"/><line x1="0" x2="70" y1="0" y2="0" stroke="#4584b6" stroke-linecap="round" stroke-width="15"/><line x1="0" x2="70" y1="50" y2="50" stroke="#4584b6" stroke-linecap="round" stroke-width="15"/><line x1="0" x2="70" y1="100" y2="100" stroke="#4584b6" stroke-linecap="round" stroke-width="15"/></g><g transform="translate(510,10)"><line x1="0" x2="0" y1="0" y2="50" stroke="#4584b6" stroke-linecap="round" stroke-width="15"/><line x1="70" x2="70" y1="50" y2="100" stroke="#4584b6" stroke-linecap="round" stroke-width="15"/><line x1="0" x2="70" y1="0" y2="0" stroke="#4584b6" stroke-linecap="round" stroke-width="15"/><line x1="0" x2="70" y1="50" y2="50" stroke="#4584b6" stroke-linecap="round" stroke-width="15"/><line x1="0" x2="70" y1="100" y2="100" stroke="#4584b6" stroke-linecap="round" stroke-width="15"/></g><g transform="translate(610,10)"><line x1="0" x2="0" y1="0" y2="100" stroke="#4584b6" stroke-linecap="round" stroke-width="15"/><line x1="0" x2="70" y1="0" y2="0" stroke="#4584b6" stroke-linecap="round" stroke-width="15"/><line x1="0" x2="70" y1="50" y2="50" stroke="#4584b6" stroke-linecap="round" stroke-width="15"/><line x1="0" x2="70" y1="100" y2="100" stroke="#4584b6" stroke-linecap="round" stroke-width="15"/></g><g transform="translate(710,10)"><line x1="0" x2="0" y1="0" y2="100" stroke="#4584b6" stroke-linecap="round" stroke-width="15"/><line x1="70" x2="70" y1="0" y2="100" stroke="#4584b6" stroke-linecap="round" stroke-width="15"/><line x1="0" x2="70" y1="0" y2="0" stroke="#4584b6" stroke-linecap="round" stroke-width="15"/></g><g transform="translate(810,10)"><line x1="0" x2="0" y1="0" y2="100" stroke="#4584b6" stroke-linecap="round" stroke-width="15"/><line x1="0" x2="70" y1="0" y2="0" stroke="#4584b6" stroke-linecap="round" stroke-width="15"/><line x1="0" x2="70" y1="100" y2="100" stroke="#4584b6" stroke-linecap="round" stroke-width="15"/></g><g transform="translate(910,10)"><line x1="0" x2="0" y1="0" y2="100" stroke="#4584b6" stroke-linecap="round" stroke-width="15"/><line x1="0" x2="70" y1="0" y2="0" stroke="#4584b6" stroke-linecap="round" stroke-width="15"/><line x1="0" x2="70" y1="50" y2="50" stroke="#4584b6" stroke-linecap="round" stroke-width="15"/><line x1="0" x2="70" y1="100" y2="100" stroke="#4584b6" stroke-linecap="round" stroke-width="15"/></g></svg>